<?xml version="1.0" encoding="UTF-8" standalone="no"?>
<svg
   height="128"
   width="128"
   version="1.1"
   id="svg7"
   sodipodi:docname="icon.svg"
   inkscape:version="1.3.2 (091e20e, 2023-11-25, custom)"
   xmlns:inkscape="http://www.inkscape.org/namespaces/inkscape"
   xmlns:sodipodi="http://sodipodi.sourceforge.net/DTD/sodipodi-0.dtd"
   xmlns="http://www.w3.org/2000/svg"
   xmlns:svg="http://www.w3.org/2000/svg">
  <defs
     id="defs7" />
  <sodipodi:namedview
     id="namedview7"
     pagecolor="#ffffff"
     bordercolor="#666666"
     borderopacity="1.0"
     inkscape:showpageshadow="2"
     inkscape:pageopacity="0.0"
     inkscape:pagecheckerboard="0"
     inkscape:deskcolor="#d1d1d1"
     inkscape:zoom="1.6230469"
     inkscape:cx="-40.048135"
     inkscape:cy="84.717208"
     inkscape:window-width="1920"
     inkscape:window-height="1009"
     inkscape:window-x="-8"
     inkscape:window-y="-8"
     inkscape:window-maximized="1"
     inkscape:current-layer="svg7" />
  <rect
     x="2"
     y="2"
     width="124"
     height="124"
     rx="14"
     fill="#363d52"
     stroke="#212532"
     stroke-width="4"
     id="rect1"
     style="display:none" />
  <g
     transform="matrix(0.101,0,0,0.101,12.322,12.322)"
     id="g7"
     style="display:none">
    <g
       fill="#ffffff"
       id="g4">
      <path
         d="m 105,673 v 33 q 407,354 814,0 v -33 z"
         id="path1" />
      <path
         fill="#478cbf"
         d="m 105,673 152,14 q 12,1 15,14 l 4,67 132,10 8,-61 q 2,-11 15,-15 h 162 q 13,4 15,15 l 8,61 132,-10 4,-67 q 3,-13 15,-14 L 919,673 V 427 q 30,-39 56,-81 -35,-59 -83,-108 -43,20 -82,47 -40,-37 -88,-64 7,-51 8,-102 -59,-28 -123,-42 -26,43 -46,89 -49,-7 -98,0 -20,-46 -46,-89 -64,14 -123,42 1,51 8,102 -48,27 -88,64 -39,-27 -82,-47 -48,49 -83,108 26,42 56,81 z m 0,33 v 39 c 0,276 813,276 813,0 v -39 l -134,12 -5,69 q -2,10 -14,13 l -162,11 q -12,0 -16,-11 L 577,735 H 447 l -10,65 q -4,11 -16,11 L 259,800 q -12,-3 -14,-13 l -5,-69 z"
         id="path2" />
      <path
         d="m 483,600 c 3,34 55,34 58,0 v -86 c -3,-34 -55,-34 -58,0 z"
         id="path3" />
      <circle
         cx="725"
         cy="526"
         r="90"
         id="circle3" />
      <circle
         cx="299"
         cy="526"
         r="90"
         id="circle4" />
    </g>
    <g
       fill="#414042"
       id="g6">
      <circle
         cx="307"
         cy="532"
         r="60"
         id="circle5" />
      <circle
         cx="717"
         cy="532"
         r="60"
         id="circle6" />
    </g>
  </g>
  <g
     id="g8"
     style="display:inline"
     transform="matrix(0.66287558,0,0,0.64372967,153.96033,27.720683)">
    <path
       id="path14"
       style="fill:#000000;stroke:none;stroke-width:0.523771;stroke-linecap:round;stroke-linejoin:round"
       d="m -133.13091,-33.012878 a 89.37088,89.37088 0 0 0 -89.3709,89.370861 89.37088,89.37088 0 0 0 89.3709,89.370897 89.37088,89.37088 0 0 0 54.799595,-19.04031 70.852589,70.852589 0 0 1 -7.29634,0.5221 70.852589,70.852589 0 0 1 -70.852685,-70.852687 70.852589,70.852589 0 0 1 70.852685,-70.852688 70.852589,70.852589 0 0 1 7.44363,0.402785 89.37088,89.37088 0 0 0 -54.946885,-18.920958 z" />
    <path
       sodipodi:type="star"
       style="fill:#ff4c61;fill-opacity:1;stroke:none;stroke-width:0.465;stroke-linecap:round;stroke-linejoin:round"
       id="path1-1"
       inkscape:flatsided="false"
       sodipodi:sides="4"
       sodipodi:cx="121.30583"
       sodipodi:cy="128.382"
       sodipodi:r1="48.01955"
       sodipodi:r2="22.569187"
       sodipodi:arg1="-0.010525927"
       sodipodi:arg2="0.77487224"
       inkscape:rounded="0.12"
       inkscape:randomized="0"
       d="m 169.32272,127.87656 c 0.0452,4.29733 -28.88429,13.22475 -31.89097,16.29541 -3.00668,3.07065 -11.32315,32.18169 -15.62048,32.22692 -4.29732,0.0452 -13.22475,-28.88428 -16.2954,-31.89097 -3.07066,-3.00668 -32.181693,-11.32315 -32.226928,-15.62048 -0.04524,-4.29732 28.884288,-13.22474 31.890968,-16.2954 3.00669,-3.07065 11.32315,-32.181691 15.62048,-32.226926 4.29733,-0.04524 13.22475,28.884286 16.2954,31.890966 3.07066,3.00669 32.1817,11.32316 32.22693,15.62048 z"
       transform="matrix(1.073032,0,0,1.073032,-230.61143,-81.399978)" />
  </g>
</svg>
